<svg xmlns="http://www.w3.org/2000/svg" xmlns:xlink="http://www.w3.org/1999/xlink" viewBox="0,0,256,256" width="128px" height="128px"><defs><linearGradient x1="41.5" y1="24.092" x2="41.5" y2="41.092" gradientUnits="userSpaceOnUse" id="color-1"><stop offset="0" stop-color="#8cffd8"></stop><stop offset="1" stop-color="#ffb0cc"></stop></linearGradient><linearGradient x1="31.5" y1="5.092" x2="31.5" y2="59.092" gradientUnits="userSpaceOnUse" id="color-2"><stop offset="0" stop-color="#8cffd8"></stop><stop offset="1" stop-color="#ffb0cc"></stop></linearGradient><linearGradient x1="42.159" y1="29.41" x2="42.159" y2="37.092" gradientUnits="userSpaceOnUse" id="color-3"><stop offset="0" stop-color="#c2517d"></stop><stop offset="1" stop-color="#60c8a6"></stop></linearGradient><linearGradient x1="23" y1="49.123" x2="23" y2="55.046" gradientUnits="userSpaceOnUse" id="color-4"><stop offset="0" stop-color="#c2517d"></stop><stop offset="1" stop-color="#60c8a6"></stop></linearGradient><linearGradient x1="23.029" y1="9.092" x2="23.029" y2="14.092" gradientUnits="userSpaceOnUse" id="color-5"><stop offset="0" stop-color="#c2517d"></stop><stop offset="1" stop-color="#60c8a6"></stop></linearGradient></defs><g fill="none" fill-rule="nonzero" stroke="none" stroke-width="1" stroke-linecap="butt" stroke-linejoin="miter" stroke-miterlimit="10" stroke-dasharray="" stroke-dashoffset="0" font-family="none" font-weight="none" font-size="none" text-anchor="none" style="mix-blend-mode: normal"><g transform="scale(4,4)"><path d="M41.5,24.092c-4.687,0 -8.5,3.813 -8.5,8.5c0,4.687 3.813,8.5 8.5,8.5c4.687,0 8.5,-3.813 8.5,-8.5c0,-4.687 -3.813,-8.5 -8.5,-8.5zM41.5,39.092c-3.584,0 -6.5,-2.916 -6.5,-6.5c0,-3.584 2.916,-6.5 6.5,-6.5c3.584,0 6.5,2.916 6.5,6.5c0,3.584 -2.916,6.5 -6.5,6.5z" fill="url(#color-1)"></path><path d="M40.56,24.092c5.206,0 9.44,-4.249 9.44,-9.471c0,-5.255 -4.235,-9.529 -9.44,-9.529h-7.675h-1.77h-8.675c-5.206,0 -9.44,4.248 -9.44,9.47c0,3.74 2.151,6.975 5.265,8.534c-3.116,1.555 -5.265,4.761 -5.265,8.466c0,3.769 2.197,7.025 5.368,8.57c-3.205,1.621 -5.368,4.99 -5.368,8.984c0,5.501 4.476,9.977 9.977,9.977c5.526,-0.001 10.023,-4.498 10.023,-10.025v-7.976v-2v-6.5v-8.5zM15,14.562c0,-4.119 3.338,-7.47 7.44,-7.47h8.56v15h-8.505h-0.055c-4.102,0 -7.44,-3.378 -7.44,-7.53zM31,49.068c0,4.425 -3.599,8.024 -8.023,8.024c-4.398,0 -7.977,-3.578 -7.977,-7.977c0,-4.499 3.395,-8.023 7.729,-8.023h8.271zM31,39.092h-8.271h-0.234c-4.132,0 -7.495,-3.378 -7.495,-7.53c0,-4.119 3.362,-7.47 7.495,-7.47h8.505zM33,22.092v-15h7.56c4.103,0 7.44,3.378 7.44,7.529c0,4.119 -3.338,7.471 -7.44,7.471z" fill="url(#color-2)"></path><path d="M44.682,29.41l-6.364,6.364c1.757,1.757 4.607,1.757 6.364,0c1.757,-1.757 1.757,-4.606 0,-6.364z" fill="url(#color-3)"></path><path d="M17,49.154c0,3.254 2.679,5.892 5.984,5.892c3.305,0 6.016,-2.669 6.016,-5.923z" fill="url(#color-4)"></path><path d="M22.5,9.092c-2.869,0 -5.225,2.197 -5.478,5h12.013v-5z" fill="url(#color-5)"></path></g></g></svg>