<svg xmlns="http://www.w3.org/2000/svg" xmlns:xlink="http://www.w3.org/1999/xlink" viewBox="0,0,256,256" width="128px" height="128px"><defs><linearGradient x1="32" y1="5" x2="32" y2="60.013" gradientUnits="userSpaceOnUse" id="color-1"><stop offset="0" stop-color="#8cffd8"></stop><stop offset="1" stop-color="#ffb0cc"></stop></linearGradient><linearGradient x1="27" y1="29" x2="27" y2="39" gradientUnits="userSpaceOnUse" id="color-2"><stop offset="0" stop-color="#60c8a6"></stop><stop offset="1" stop-color="#c2517d"></stop></linearGradient><linearGradient x1="45" y1="29" x2="45" y2="39" gradientUnits="userSpaceOnUse" id="color-3"><stop offset="0" stop-color="#60c8a6"></stop><stop offset="1" stop-color="#c2517d"></stop></linearGradient><linearGradient x1="36" y1="29" x2="36" y2="39" gradientUnits="userSpaceOnUse" id="color-4"><stop offset="0" stop-color="#60c8a6"></stop><stop offset="1" stop-color="#c2517d"></stop></linearGradient><linearGradient x1="19" y1="29" x2="19" y2="39" gradientUnits="userSpaceOnUse" id="color-5"><stop offset="0" stop-color="#60c8a6"></stop><stop offset="1" stop-color="#c2517d"></stop></linearGradient></defs><g fill="none" fill-rule="nonzero" stroke="none" stroke-width="1" stroke-linecap="butt" stroke-linejoin="miter" stroke-miterlimit="10" stroke-dasharray="" stroke-dashoffset="0" font-family="none" font-weight="none" font-size="none" text-anchor="none" style="mix-blend-mode: normal"><g transform="scale(4,4)"><path d="M51.121,15.707l-8.828,-8.828c-0.566,-0.566 -1.32,-0.879 -2.122,-0.879h-25.171c-1.654,0 -3,1.346 -3,3v40v2v4c0,1.654 1.346,3 3,3h34c1.654,0 3,-1.346 3,-3v-4v-2v-31.172c0,-0.801 -0.312,-1.555 -0.879,-2.121zM48.586,16h-5.586c-0.551,0 -1,-0.448 -1,-1v-5.586zM49,56h-34c-0.551,0 -1,-0.448 -1,-1v-1.185c0.314,0.113 0.648,0.185 1,0.185h34c0.352,0 0.686,-0.072 1,-0.184v1.184c0,0.552 -0.449,1 -1,1zM50,51c0,0.552 -0.449,1 -1,1h-34c-0.551,0 -1,-0.448 -1,-1v-2v-40c0,-0.552 0.449,-1 1,-1h25v7c0,1.654 1.346,3 3,3h7v31z" fill="url(#color-1)"></path><path d="M24,29.5v1c0,0.276 0.224,0.5 0.5,0.5h1.5v7.5c0,0.276 0.224,0.5 0.5,0.5h1c0.276,0 0.5,-0.224 0.5,-0.5v-7.5h1.5c0.276,0 0.5,-0.224 0.5,-0.5v-1c0,-0.276 -0.224,-0.5 -0.5,-0.5h-5c-0.276,0 -0.5,0.224 -0.5,0.5z" fill="url(#color-2)"></path><path d="M47.5,39h-3.5c-1.105,0 -2,-0.895 -2,-2v-7.5c0,-0.276 0.224,-0.5 0.5,-0.5h1c0.276,0 0.5,0.224 0.5,0.5v7c0,0.276 0.224,0.5 0.5,0.5h3c0.276,0 0.5,0.224 0.5,0.5v1c0,0.276 -0.224,0.5 -0.5,0.5z" fill="url(#color-3)"></path><path d="M39.524,29.475l0.45,9c0.014,0.286 -0.214,0.525 -0.5,0.525h-0.994c-0.268,0 -0.488,-0.211 -0.5,-0.479l-0.23,-5.521l-1.173,2.155c-0.249,0.457 -0.905,0.457 -1.154,0l-1.173,-2.155l-0.23,5.521c-0.011,0.268 -0.232,0.479 -0.5,0.479h-0.995c-0.286,0 -0.514,-0.239 -0.499,-0.525l0.45,-9c0.014,-0.266 0.233,-0.475 0.5,-0.475h1.214c0.19,0 0.363,0.108 0.448,0.278l1.362,2.746l1.362,-2.746c0.085,-0.17 0.258,-0.278 0.448,-0.278h1.214c0.267,0 0.486,0.209 0.5,0.475z" fill="url(#color-4)"></path><path d="M20,29.5v3.5h-2v-3.5c0,-0.276 -0.224,-0.5 -0.5,-0.5h-1c-0.276,0 -0.5,0.224 -0.5,0.5v9c0,0.276 0.224,0.5 0.5,0.5h1c0.276,0 0.5,-0.224 0.5,-0.5v-3.5h2v3.5c0,0.276 0.224,0.5 0.5,0.5h1c0.276,0 0.5,-0.224 0.5,-0.5v-9c0,-0.276 -0.224,-0.5 -0.5,-0.5h-1c-0.276,0 -0.5,0.224 -0.5,0.5z" fill="url(#color-5)"></path></g></g></svg>