<svg xmlns="http://www.w3.org/2000/svg" xmlns:xlink="http://www.w3.org/1999/xlink" viewBox="0,0,256,256" width="128px" height="128px"><defs><linearGradient x1="32" y1="9.043" x2="32" y2="55.011" gradientUnits="userSpaceOnUse" id="color-1"><stop offset="0" stop-color="#8cffd8"></stop><stop offset="1" stop-color="#ffb0cc"></stop></linearGradient><linearGradient x1="45.578" y1="35.681" x2="45.578" y2="50.191" gradientUnits="userSpaceOnUse" id="color-2"><stop offset="0" stop-color="#60c8a6"></stop><stop offset="1" stop-color="#c2517d"></stop></linearGradient><linearGradient x1="34.081" y1="35.681" x2="34.081" y2="50.191" gradientUnits="userSpaceOnUse" id="color-3"><stop offset="0" stop-color="#60c8a6"></stop><stop offset="1" stop-color="#c2517d"></stop></linearGradient></defs><g fill="none" fill-rule="nonzero" stroke="none" stroke-width="1" stroke-linecap="butt" stroke-linejoin="miter" stroke-miterlimit="10" stroke-dasharray="" stroke-dashoffset="0" font-family="none" font-weight="none" font-size="none" text-anchor="none" style="mix-blend-mode: normal"><g transform="scale(4,4)"><path d="M51,8h-38c-2.8,0 -5,2.2 -5,5v38c0,2.8 2.2,5 5,5h38c2.8,0 5,-2.2 5,-5v-38c0,-2.8 -2.2,-5 -5,-5zM54,51c0,1.7 -1.3,3 -3,3h-38c-1.7,0 -3,-1.3 -3,-3v-38c0,-1.7 1.3,-3 3,-3h38c1.7,0 3,1.3 3,3z" fill="url(#color-1)"></path><path d="M46.7,41.5l-0.8,-0.3c-1.4,-0.6 -2,-1 -2,-2c0,-0.8 0.6,-1.4 1.5,-1.4c0.8,0 1.3,0.3 1.8,1c0.1,0.2 0.4,0.3 0.7,0.1l1.7,-1.1c0.2,-0.1 0.3,-0.5 0.2,-0.7c-1,-1.5 -2.4,-2.1 -4.3,-2.1c-2.9,0 -4.7,1.8 -4.7,4.2c0,2.6 1.5,3.9 3.9,4.8l0.8,0.3c1.5,0.6 2.2,1 2.2,2.1c0,0.9 -0.7,1.6 -2,1.6c-1.4,0 -2.1,-0.8 -2.8,-1.8c-0.2,-0.2 -0.5,-0.3 -0.7,-0.1l-1.7,1.1c-0.2,0.1 -0.3,0.4 -0.2,0.7c1,1.7 2.6,3 5.4,3c3.1,0 5.3,-1.6 5.3,-4.5c0,-2.6 -1.5,-3.8 -4.3,-4.9z" fill="url(#color-2)"></path><path d="M38.5,35h-2.3c-0.3,0 -0.5,0.2 -0.5,0.5v10.1c0,1.6 -0.6,2 -1.7,2c-0.9,0 -1.6,-0.5 -2.1,-1.2c-0.1,-0.2 -0.4,-0.3 -0.7,-0.1l-1.8,1.1c-0.2,0.1 -0.3,0.5 -0.2,0.7c0.9,1.5 2.6,2.9 5,2.9c2.9,0 4.8,-1.5 4.8,-4.9v-10.6c0,-0.3 -0.2,-0.5 -0.5,-0.5z" fill="url(#color-3)"></path></g></g></svg>