<svg xmlns="http://www.w3.org/2000/svg" xmlns:xlink="http://www.w3.org/1999/xlink" viewBox="0,0,256,256" width="128px" height="128px"><defs><linearGradient x1="39" y1="8.167" x2="39" y2="55.505" gradientUnits="userSpaceOnUse" id="color-1"><stop offset="0" stop-color="#8cffd8"></stop><stop offset="1" stop-color="#ffb0cc"></stop></linearGradient><linearGradient x1="39" y1="8.167" x2="39" y2="55.505" gradientUnits="userSpaceOnUse" id="color-2"><stop offset="0" stop-color="#8cffd8"></stop><stop offset="1" stop-color="#ffb0cc"></stop></linearGradient><linearGradient x1="14" y1="8.167" x2="14" y2="55.505" gradientUnits="userSpaceOnUse" id="color-3"><stop offset="0" stop-color="#8cffd8"></stop><stop offset="1" stop-color="#ffb0cc"></stop></linearGradient><linearGradient x1="20" y1="8.167" x2="20" y2="55.505" gradientUnits="userSpaceOnUse" id="color-4"><stop offset="0" stop-color="#8cffd8"></stop><stop offset="1" stop-color="#ffb0cc"></stop></linearGradient><linearGradient x1="14" y1="8.167" x2="14" y2="55.505" gradientUnits="userSpaceOnUse" id="color-5"><stop offset="0" stop-color="#8cffd8"></stop><stop offset="1" stop-color="#ffb0cc"></stop></linearGradient><linearGradient x1="20" y1="8.167" x2="20" y2="55.505" gradientUnits="userSpaceOnUse" id="color-6"><stop offset="0" stop-color="#8cffd8"></stop><stop offset="1" stop-color="#ffb0cc"></stop></linearGradient><linearGradient x1="14" y1="8.167" x2="14" y2="55.505" gradientUnits="userSpaceOnUse" id="color-7"><stop offset="0" stop-color="#8cffd8"></stop><stop offset="1" stop-color="#ffb0cc"></stop></linearGradient><linearGradient x1="20" y1="8.167" x2="20" y2="55.505" gradientUnits="userSpaceOnUse" id="color-8"><stop offset="0" stop-color="#8cffd8"></stop><stop offset="1" stop-color="#ffb0cc"></stop></linearGradient><linearGradient x1="32" y1="8.167" x2="32" y2="55.505" gradientUnits="userSpaceOnUse" id="color-9"><stop offset="0" stop-color="#8cffd8"></stop><stop offset="1" stop-color="#ffb0cc"></stop></linearGradient><linearGradient x1="47" y1="37.5" x2="47" y2="49.167" gradientUnits="userSpaceOnUse" id="color-10"><stop offset="0" stop-color="#ffb0cc"></stop><stop offset="1" stop-color="#8cffd8"></stop></linearGradient></defs><g fill="none" fill-rule="nonzero" stroke="none" stroke-width="1" stroke-linecap="butt" stroke-linejoin="miter" stroke-miterlimit="10" stroke-dasharray="" stroke-dashoffset="0" font-family="none" font-weight="none" font-size="none" text-anchor="none" style="mix-blend-mode: normal"><g transform="scale(4,4)"><path d="M36,29h6v2h-6z" fill="url(#color-1)"></path><path d="M36,17h6v2h-6z" fill="url(#color-2)"></path><path d="M12,29h4v2h-4z" fill="url(#color-3)"></path><path d="M18,29h4v2h-4z" fill="url(#color-4)"></path><path d="M12,41h4v2h-4z" fill="url(#color-5)"></path><path d="M18,41h4v2h-4z" fill="url(#color-6)"></path><path d="M12,17h4v2h-4z" fill="url(#color-7)"></path><path d="M18,17h4v2h-4z" fill="url(#color-8)"></path><path d="M58,44c0,-1.474 -1.068,-2.703 -2.471,-2.953c-0.129,-0.412 -0.282,-0.739 -0.446,-1.039c0.328,-0.489 0.503,-1.063 0.503,-1.665c0,-0.802 -0.313,-1.555 -0.879,-2.121c-1.008,-1.007 -2.697,-1.14 -3.837,-0.341c-0.296,-0.141 -0.6,-0.265 -0.91,-0.373c-0.192,-1.162 -1.059,-2.089 -2.179,-2.393c0.138,-0.345 0.219,-0.72 0.219,-1.115v-4c0,-1.302 -0.839,-2.402 -2,-2.816v-2.369c1.161,-0.414 2,-1.514 2,-2.816v-4c0,-1.654 -1.346,-3 -3,-3h-1v-1c0,-1.654 -1.346,-3 -3,-3h-28c-1.654,0 -3,1.346 -3,3v1h-1c-1.654,0 -3,1.346 -3,3v4c0,1.302 0.839,2.402 2,2.816v2.369c-1.161,0.414 -2,1.514 -2,2.816v4c0,1.302 0.839,2.402 2,2.816v2.369c-1.161,0.413 -2,1.513 -2,2.815v4c0,1.654 1.346,3 3,3h1v1c0,1.654 1.346,3 3,3h25.63c0.144,0.307 0.339,0.595 0.592,0.849c1.068,1.068 2.749,1.159 3.924,0.277c0.29,0.137 0.589,0.259 0.894,0.365c0.235,1.421 1.473,2.509 2.96,2.509c1.487,0 2.725,-1.087 2.96,-2.509c0.305,-0.106 0.604,-0.229 0.894,-0.365c1.146,0.866 2.893,0.756 3.924,-0.277c1.054,-1.054 1.158,-2.703 0.314,-3.874c0.161,-0.295 0.31,-0.617 0.437,-1.021c1.403,-0.251 2.471,-1.48 2.471,-2.954zM38.708,37h-28.708v-2h34.172c-0.058,0.163 -0.103,0.333 -0.132,0.508c-0.345,0.121 -0.683,0.263 -1.011,0.424c-1.166,-0.791 -2.772,-0.672 -3.808,0.36c-0.213,0.213 -0.377,0.455 -0.513,0.708zM44,23v2h-34v-2zM12,12c0,-0.552 0.449,-1 1,-1h28c0.551,0 1,0.448 1,1v1h-30zM8,16c0,-0.552 0.449,-1 1,-1h36c0.551,0 1,0.448 1,1v4c0,0.552 -0.449,1 -1,1h-36c-0.551,0 -1,-0.448 -1,-1zM8,28c0,-0.552 0.449,-1 1,-1h36c0.551,0 1,0.448 1,1v4c0,0.552 -0.449,1 -1,1h-36c-0.551,0 -1,-0.448 -1,-1zM8,44v-4c0,-0.552 0.449,-1 1,-1h29.412c0.077,0.388 0.222,0.766 0.453,1.104c-0.146,0.27 -0.282,0.631 -0.399,1.011c-1.342,0.247 -2.368,0.885 -2.45,2.885h-0.002l-0.014,0.019l0.003,0.021c0,0.009 -0.002,0 -0.002,0.008c0,0.038 0.009,-0.029 0.01,0.008l0.003,-0.056h0.001c0.016,0 0.068,0.743 0.159,1h-27.174c-0.551,0 -1,-0.448 -1,-1zM12,48v-1h26.489c0.123,0.38 0.266,0.692 0.419,0.975c-0.226,0.314 -0.379,0.664 -0.469,1.025h-25.439c-0.551,0 -1,-0.448 -1,-1zM55,45h-1.088l-0.157,0.811c-0.149,0.77 -0.352,1.107 -0.688,1.668l-0.466,0.777l0.763,0.765c0.39,0.39 0.39,1.024 0,1.414c-0.377,0.379 -1.037,0.378 -1.413,0.001l-0.774,-0.776l-0.667,0.389c-0.544,0.317 -1.136,0.561 -1.76,0.722l-0.75,0.192v1.037c0,0.552 -0.449,1 -1,1c-0.551,0 -1,-0.448 -1,-1v-1.037l-0.75,-0.193c-0.624,-0.161 -1.216,-0.404 -1.76,-0.722l-0.667,-0.389l-0.773,0.775c-0.39,0.39 -1.024,0.392 -1.414,0c-0.39,-0.39 -0.39,-1.024 0,-1.414l0.764,-0.764l-0.467,-0.778c-0.336,-0.561 -0.54,-0.898 -0.688,-1.668l-0.158,-0.81h-0.087h-1c-0.558,0 -0.997,-0.43 -0.999,-0.969c0.002,-0.559 0.46,-1.031 0.999,-1.031h1.095l0.151,-0.818c0.133,-0.722 0.306,-1.015 0.593,-1.499l0.501,-0.859l-0.704,-0.702c-0.39,-0.39 -0.39,-1.025 -0.001,-1.414c0.39,-0.391 1.025,-0.391 1.414,-0.002l0.693,0.695l0.671,-0.402c0.572,-0.343 1.19,-0.601 1.837,-0.769l0.75,-0.194v-1.036c0,-0.552 0.449,-1 1,-1c0.551,0 1,0.448 1,1v1.036l0.75,0.193c0.621,0.161 1.213,0.403 1.76,0.722l0.665,0.387l0.705,-0.702c0.377,-0.379 1.036,-0.377 1.414,0c0.39,0.39 0.39,1.024 -0.001,1.415l-0.693,0.694l0.464,0.771c0.338,0.563 0.542,0.901 0.692,1.673l0.157,0.811h1.087c0.551,0 1,0.448 1,1c0,0.552 -0.448,1 -1,1z" fill="url(#color-9)"></path><path d="M47,39c-2.76142,0 -5,2.23858 -5,5c0,2.76142 2.23858,5 5,5c2.76142,0 5,-2.23858 5,-5c0,-2.76142 -2.23858,-5 -5,-5z" fill="url(#color-10)"></path></g></g></svg>