{
	"asset":{
		"generator":"Khronos glTF Blender I/O v3.6.28",
		"version":"2.0"
	},
	"extensionsUsed":[
		"KHR_materials_specular",
		"KHR_materials_ior"
	],
	"scene":0,
	"scenes":[
		{
			"name":"Scene",
			"nodes":[
				0,
				1,
				2,
				3,
				4,
				5,
				6,
				7,
				8
			]
		}
	],
	"nodes":[
		{
			"mesh":0,
			"name":"Torus.001",
			"rotation":[
				-0.02557847462594509,
				-0.18546386063098907,
				-0.13420723378658295,
				0.9731070399284363
			],
			"scale":[
				1.4156898260116577,
				1.4156897068023682,
				1.4156898260116577
			],
			"translation":[
				-0.040146492421627045,
				-0.03828789293766022,
				-0.024886339902877808
			]
		},
		{
			"mesh":1,
			"name":"Cube",
			"rotation":[
				0.05194978043437004,
				0.004700683988630772,
				-0.08999405801296234,
				0.9945753812789917
			],
			"scale":[
				0.5059994459152222,
				0.5059994459152222,
				0.38283511996269226
			],
			"translation":[
				0.2662661373615265,
				0.4597007930278778,
				0.2819288671016693
			]
		},
		{
			"mesh":2,
			"name":"Star",
			"rotation":[
				0.7890793681144714,
				-0.050213877111673355,
				0.2827119827270508,
				0.5430526733398438
			],
			"scale":[
				0.24569880962371826,
				0.24569883942604065,
				0.24569888412952423
			],
			"translation":[
				-0.8449568152427673,
				0.6642001867294312,
				-0.3141765594482422
			]
		},
		{
			"mesh":3,
			"name":"Sphere.001",
			"scale":[
				0.060450684279203415,
				0.060450684279203415,
				0.060450684279203415
			],
			"translation":[
				-0.7446327209472656,
				-0.6917335391044617,
				0.7909411191940308
			]
		},
		{
			"mesh":4,
			"name":"Sphere.002",
			"scale":[
				0.09859310835599899,
				0.09859310835599899,
				0.09859310835599899
			],
			"translation":[
				-1.275796890258789,
				-0.1254837065935135,
				-0.6587229371070862
			]
		},
		{
			"mesh":5,
			"name":"Sphere.003",
			"scale":[
				-0.06328833103179932,
				-0.06328833103179932,
				-0.06328833103179932
			],
			"translation":[
				1.0241349935531616,
				1.0830579996109009,
				-0.014586498029530048
			]
		},
		{
			"mesh":6,
			"name":"Cube.001",
			"rotation":[
				-0.1005459874868393,
				0.016768071800470352,
				0.16364172101020813,
				0.9812394976615906
			],
			"scale":[
				0.5059994459152222,
				0.5059994459152222,
				0.3828350901603699
			],
			"translation":[
				-0.35241106152534485,
				-0.3312665522098541,
				-0.24668776988983154
			]
		},
		{
			"mesh":7,
			"name":"Star.001",
			"rotation":[
				0.7265341281890869,
				0.26859888434410095,
				-0.27619704604148865,
				0.5689622759819031
			],
			"scale":[
				0.44467997550964355,
				0.4446801543235779,
				0.4446801245212555
			],
			"translation":[
				0.2992893159389496,
				-0.6266204714775085,
				-0.9495545029640198
			]
		},
		{
			"mesh":8,
			"name":"Star.002",
			"rotation":[
				-0.30534127354621887,
				0.8878076076507568,
				0.27915236353874207,
				0.20159010589122772
			],
			"scale":[
				0.24549077451229095,
				0.2454908788204193,
				0.24549086391925812
			],
			"translation":[
				0.9973231554031372,
				0.18737617135047913,
				0.9438719749450684
			]
		}
	],
	"materials":[
		{
			"doubleSided":true,
			"extensions":{
				"KHR_materials_specular":{
					"specularColorFactor":[
						1.9502753948034062,
						1.9502753948034062,
						1.9502753948034062
					]
				},
				"KHR_materials_ior":{
					"ior":1.4500000476837158
				}
			},
			"name":"Material.002",
			"pbrMetallicRoughness":{
				"baseColorTexture":{
					"index":0
				},
				"roughnessFactor":0.31308412551879883
			}
		},
		{
			"doubleSided":true,
			"name":"Material.008",
			"pbrMetallicRoughness":{
				"baseColorTexture":{
					"index":1
				},
				"metallicFactor":0,
				"roughnessFactor":0.5
			}
		},
		{
			"doubleSided":true,
			"emissiveFactor":[
				1,
				1,
				1
			],
			"emissiveTexture":{
				"index":2
			},
			"name":"neon",
			"pbrMetallicRoughness":{
				"baseColorFactor":[
					0.800000011920929,
					0.800000011920929,
					0.800000011920929,
					1
				],
				"metallicFactor":0,
				"roughnessFactor":0.5
			}
		},
		{
			"alphaMode":"BLEND",
			"doubleSided":true,
			"emissiveFactor":[
				1,
				1,
				1
			],
			"emissiveTexture":{
				"index":3
			},
			"name":"6-\u956d\u5c04-\u5207\u5272\u73bb\u7483\u82b1\u7eb9",
			"pbrMetallicRoughness":{
				"baseColorFactor":[
					0.800000011920929,
					0.800000011920929,
					0.800000011920929,
					1
				],
				"metallicFactor":0,
				"roughnessFactor":0.5
			}
		},
		{
			"doubleSided":true,
			"name":"Material.005",
			"pbrMetallicRoughness":{
				"baseColorTexture":{
					"index":4
				},
				"metallicFactor":0,
				"roughnessFactor":0.5
			}
		}
	],
	"meshes":[
		{
			"name":"Torus.001",
			"primitives":[
				{
					"attributes":{
						"POSITION":0,
						"NORMAL":1,
						"TEXCOORD_0":2
					},
					"indices":3,
					"material":0
				}
			]
		},
		{
			"name":"Cube.001",
			"primitives":[
				{
					"attributes":{
						"POSITION":4,
						"NORMAL":5,
						"TEXCOORD_0":6
					},
					"indices":7,
					"material":1
				}
			]
		},
		{
			"name":"Star.003",
			"primitives":[
				{
					"attributes":{
						"POSITION":8,
						"NORMAL":9,
						"TEXCOORD_0":10
					},
					"indices":11,
					"material":2
				}
			]
		},
		{
			"name":"Sphere.001",
			"primitives":[
				{
					"attributes":{
						"POSITION":12,
						"NORMAL":13,
						"TEXCOORD_0":14
					},
					"indices":15,
					"material":3
				}
			]
		},
		{
			"name":"Sphere.002",
			"primitives":[
				{
					"attributes":{
						"POSITION":16,
						"NORMAL":17,
						"TEXCOORD_0":18
					},
					"indices":15,
					"material":3
				}
			]
		},
		{
			"name":"Sphere.003",
			"primitives":[
				{
					"attributes":{
						"POSITION":19,
						"NORMAL":20,
						"TEXCOORD_0":21
					},
					"indices":22,
					"material":3
				}
			]
		},
		{
			"name":"Cube.003",
			"primitives":[
				{
					"attributes":{
						"POSITION":23,
						"NORMAL":24,
						"TEXCOORD_0":25
					},
					"indices":26,
					"material":4
				}
			]
		},
		{
			"name":"Star.004",
			"primitives":[
				{
					"attributes":{
						"POSITION":27,
						"NORMAL":28,
						"TEXCOORD_0":29
					},
					"indices":11,
					"material":2
				}
			]
		},
		{
			"name":"Star.005",
			"primitives":[
				{
					"attributes":{
						"POSITION":30,
						"NORMAL":31,
						"TEXCOORD_0":32
					},
					"indices":11,
					"material":2
				}
			]
		}
	],
	"textures":[
		{
			"sampler":0,
			"source":0
		},
		{
			"sampler":0,
			"source":1
		},
		{
			"sampler":0,
			"source":2
		},
		{
			"sampler":0,
			"source":3
		},
		{
			"sampler":0,
			"source":4
		}
	],
	"images":[
		{
			"bufferView":4,
			"mimeType":"image/png",
			"name":"ring"
		},
		{
			"bufferView":9,
			"mimeType":"image/png",
			"name":"heart l"
		},
		{
			"bufferView":14,
			"mimeType":"image/png",
			"name":"stars.001"
		},
		{
			"bufferView":19,
			"mimeType":"image/png",
			"name":"sphere"
		},
		{
			"bufferView":31,
			"mimeType":"image/png",
			"name":"Untitled"
		}
	],
	"accessors":[
		{
			"bufferView":0,
			"componentType":5126,
			"count":1092,
			"max":[
				1.0623369216918945,
				0.24543072283267975,
				1.0097235441207886
			],
			"min":[
				-0.9831562638282776,
				-0.18148018419742584,
				-1.0065829753875732
			],
			"type":"VEC3"
		},
		{
			"bufferView":1,
			"componentType":5126,
			"count":1092,
			"type":"VEC3"
		},
		{
			"bufferView":2,
			"componentType":5126,
			"count":1092,
			"type":"VEC2"
		},
		{
			"bufferView":3,
			"componentType":5123,
			"count":5976,
			"type":"SCALAR"
		},
		{
			"bufferView":5,
			"componentType":5126,
			"count":1263,
			"max":[
				1.3524552583694458,
				1.0615403652191162,
				0.9445316195487976
			],
			"min":[
				-1.3520910739898682,
				-1.3270481824874878,
				-0.9433778524398804
			],
			"type":"VEC3"
		},
		{
			"bufferView":6,
			"componentType":5126,
			"count":1263,
			"type":"VEC3"
		},
		{
			"bufferView":7,
			"componentType":5126,
			"count":1263,
			"type":"VEC2"
		},
		{
			"bufferView":8,
			"componentType":5123,
			"count":6432,
			"type":"SCALAR"
		},
		{
			"bufferView":10,
			"componentType":5126,
			"count":522,
			"max":[
				0.6096825003623962,
				0.24770283699035645,
				0.7089824080467224
			],
			"min":[
				-0.7524641752243042,
				-0.2753329277038574,
				-0.7065261602401733
			],
			"type":"VEC3"
		},
		{
			"bufferView":11,
			"componentType":5126,
			"count":522,
			"type":"VEC3"
		},
		{
			"bufferView":12,
			"componentType":5126,
			"count":522,
			"type":"VEC2"
		},
		{
			"bufferView":13,
			"componentType":5123,
			"count":2400,
			"type":"SCALAR"
		},
		{
			"bufferView":15,
			"componentType":5126,
			"count":61,
			"max":[
				0.9999999403953552,
				1,
				0.9999998807907104
			],
			"min":[
				-0.9999998807907104,
				-1,
				-0.9999998807907104
			],
			"type":"VEC3"
		},
		{
			"bufferView":16,
			"componentType":5126,
			"count":61,
			"type":"VEC3"
		},
		{
			"bufferView":17,
			"componentType":5126,
			"count":61,
			"type":"VEC2"
		},
		{
			"bufferView":18,
			"componentType":5123,
			"count":240,
			"type":"SCALAR"
		},
		{
			"bufferView":20,
			"componentType":5126,
			"count":61,
			"max":[
				0.9999999403953552,
				1,
				0.9999998807907104
			],
			"min":[
				-0.9999998807907104,
				-1,
				-0.9999998807907104
			],
			"type":"VEC3"
		},
		{
			"bufferView":21,
			"componentType":5126,
			"count":61,
			"type":"VEC3"
		},
		{
			"bufferView":22,
			"componentType":5126,
			"count":61,
			"type":"VEC2"
		},
		{
			"bufferView":23,
			"componentType":5126,
			"count":59,
			"max":[
				0.9999999403953552,
				1,
				0.9999998807907104
			],
			"min":[
				-0.9999998807907104,
				-1,
				-0.9999998807907104
			],
			"type":"VEC3"
		},
		{
			"bufferView":24,
			"componentType":5126,
			"count":59,
			"type":"VEC3"
		},
		{
			"bufferView":25,
			"componentType":5126,
			"count":59,
			"type":"VEC2"
		},
		{
			"bufferView":26,
			"componentType":5123,
			"count":240,
			"type":"SCALAR"
		},
		{
			"bufferView":27,
			"componentType":5126,
			"count":1230,
			"max":[
				1.3673096895217896,
				1.0265133380889893,
				0.8314008116722107
			],
			"min":[
				-1.366947054862976,
				-1.3353744745254517,
				-1.093883752822876
			],
			"type":"VEC3"
		},
		{
			"bufferView":28,
			"componentType":5126,
			"count":1230,
			"type":"VEC3"
		},
		{
			"bufferView":29,
			"componentType":5126,
			"count":1230,
			"type":"VEC2"
		},
		{
			"bufferView":30,
			"componentType":5123,
			"count":6432,
			"type":"SCALAR"
		},
		{
			"bufferView":32,
			"componentType":5126,
			"count":522,
			"max":[
				0.6096825003623962,
				0.24770283699035645,
				0.7089824080467224
			],
			"min":[
				-0.7524641752243042,
				-0.2753329277038574,
				-0.7065261602401733
			],
			"type":"VEC3"
		},
		{
			"bufferView":33,
			"componentType":5126,
			"count":522,
			"type":"VEC3"
		},
		{
			"bufferView":34,
			"componentType":5126,
			"count":522,
			"type":"VEC2"
		},
		{
			"bufferView":35,
			"componentType":5126,
			"count":522,
			"max":[
				0.6096825003623962,
				0.24770283699035645,
				0.7089824080467224
			],
			"min":[
				-0.7524641752243042,
				-0.2753329277038574,
				-0.7065261602401733
			],
			"type":"VEC3"
		},
		{
			"bufferView":36,
			"componentType":5126,
			"count":522,
			"type":"VEC3"
		},
		{
			"bufferView":37,
			"componentType":5126,
			"count":522,
			"type":"VEC2"
		}
	],
	"bufferViews":[
		{
			"buffer":0,
			"byteLength":13104,
			"byteOffset":0,
			"target":34962
		},
		{
			"buffer":0,
			"byteLength":13104,
			"byteOffset":13104,
			"target":34962
		},
		{
			"buffer":0,
			"byteLength":8736,
			"byteOffset":26208,
			"target":34962
		},
		{
			"buffer":0,
			"byteLength":11952,
			"byteOffset":34944,
			"target":34963
		},
		{
			"buffer":0,
			"byteLength":1142274,
			"byteOffset":46896
		},
		{
			"buffer":0,
			"byteLength":15156,
			"byteOffset":1189172,
			"target":34962
		},
		{
			"buffer":0,
			"byteLength":15156,
			"byteOffset":1204328,
			"target":34962
		},
		{
			"buffer":0,
			"byteLength":10104,
			"byteOffset":1219484,
			"target":34962
		},
		{
			"buffer":0,
			"byteLength":12864,
			"byteOffset":1229588,
			"target":34963
		},
		{
			"buffer":0,
			"byteLength":798140,
			"byteOffset":1242452
		},
		{
			"buffer":0,
			"byteLength":6264,
			"byteOffset":2040592,
			"target":34962
		},
		{
			"buffer":0,
			"byteLength":6264,
			"byteOffset":2046856,
			"target":34962
		},
		{
			"buffer":0,
			"byteLength":4176,
			"byteOffset":2053120,
			"target":34962
		},
		{
			"buffer":0,
			"byteLength":4800,
			"byteOffset":2057296,
			"target":34963
		},
		{
			"buffer":0,
			"byteLength":263066,
			"byteOffset":2062096
		},
		{
			"buffer":0,
			"byteLength":732,
			"byteOffset":2325164,
			"target":34962
		},
		{
			"buffer":0,
			"byteLength":732,
			"byteOffset":2325896,
			"target":34962
		},
		{
			"buffer":0,
			"byteLength":488,
			"byteOffset":2326628,
			"target":34962
		},
		{
			"buffer":0,
			"byteLength":480,
			"byteOffset":2327116,
			"target":34963
		},
		{
			"buffer":0,
			"byteLength":3294,
			"byteOffset":2327596
		},
		{
			"buffer":0,
			"byteLength":732,
			"byteOffset":2330892,
			"target":34962
		},
		{
			"buffer":0,
			"byteLength":732,
			"byteOffset":2331624,
			"target":34962
		},
		{
			"buffer":0,
			"byteLength":488,
			"byteOffset":2332356,
			"target":34962
		},
		{
			"buffer":0,
			"byteLength":708,
			"byteOffset":2332844,
			"target":34962
		},
		{
			"buffer":0,
			"byteLength":708,
			"byteOffset":2333552,
			"target":34962
		},
		{
			"buffer":0,
			"byteLength":472,
			"byteOffset":2334260,
			"target":34962
		},
		{
			"buffer":0,
			"byteLength":480,
			"byteOffset":2334732,
			"target":34963
		},
		{
			"buffer":0,
			"byteLength":14760,
			"byteOffset":2335212,
			"target":34962
		},
		{
			"buffer":0,
			"byteLength":14760,
			"byteOffset":2349972,
			"target":34962
		},
		{
			"buffer":0,
			"byteLength":9840,
			"byteOffset":2364732,
			"target":34962
		},
		{
			"buffer":0,
			"byteLength":12864,
			"byteOffset":2374572,
			"target":34963
		},
		{
			"buffer":0,
			"byteLength":564378,
			"byteOffset":2387436
		},
		{
			"buffer":0,
			"byteLength":6264,
			"byteOffset":2951816,
			"target":34962
		},
		{
			"buffer":0,
			"byteLength":6264,
			"byteOffset":2958080,
			"target":34962
		},
		{
			"buffer":0,
			"byteLength":4176,
			"byteOffset":2964344,
			"target":34962
		},
		{
			"buffer":0,
			"byteLength":6264,
			"byteOffset":2968520,
			"target":34962
		},
		{
			"buffer":0,
			"byteLength":6264,
			"byteOffset":2974784,
			"target":34962
		},
		{
			"buffer":0,
			"byteLength":4176,
			"byteOffset":2981048,
			"target":34962
		}
	],
	"samplers":[
		{
			"magFilter":9729,
			"minFilter":9987
		}
	],
	"buffers":[
		{
			"byteLength":2985224,
			"uri":"data:application/octet-stream;base64,"
		}
	]
}
