<svg xmlns="http://www.w3.org/2000/svg" xmlns:xlink="http://www.w3.org/1999/xlink" viewBox="0,0,256,256" width="128px" height="128px"><defs><linearGradient x1="32" y1="8.015" x2="32" y2="56" gradientUnits="userSpaceOnUse" id="color-1"><stop offset="0" stop-color="#8cffd8"></stop><stop offset="1" stop-color="#ffb0cc"></stop></linearGradient><linearGradient x1="44.4" y1="31.18" x2="44.4" y2="46" gradientUnits="userSpaceOnUse" id="color-2"><stop offset="0" stop-color="#60c8a6"></stop><stop offset="1" stop-color="#c2517d"></stop></linearGradient><linearGradient x1="32" y1="34.38" x2="32" y2="46" gradientUnits="userSpaceOnUse" id="color-3"><stop offset="0" stop-color="#60c8a6"></stop><stop offset="1" stop-color="#c2517d"></stop></linearGradient><linearGradient x1="20.94" y1="38.67" x2="20.94" y2="46" gradientUnits="userSpaceOnUse" id="color-4"><stop offset="0" stop-color="#60c8a6"></stop><stop offset="1" stop-color="#c2517d"></stop></linearGradient><linearGradient x1="13.64" y1="43.45" x2="13.64" y2="46" gradientUnits="userSpaceOnUse" id="color-5"><stop offset="0" stop-color="#60c8a6"></stop><stop offset="1" stop-color="#c2517d"></stop></linearGradient></defs><g fill="none" fill-rule="nonzero" stroke="none" stroke-width="1" stroke-linecap="butt" stroke-linejoin="miter" stroke-miterlimit="10" stroke-dasharray="" stroke-dashoffset="0" font-family="none" font-weight="none" font-size="none" text-anchor="none" style="mix-blend-mode: normal"><g transform="scale(4,4)"><path d="M53.98,46.83c-0.02,-0.11 -0.05,-0.22 -0.1,-0.31l-21,-38c-0.01,-0.02 -0.02,-0.03 -0.03,-0.04c-0.01,-0.01 -0.01,-0.02 -0.02,-0.04l-0.18,-0.18c-0.03,-0.02 -0.05,-0.06 -0.09,-0.08c-0.06,-0.04 -0.13,-0.06 -0.2,-0.09c-0.05,-0.02 -0.1,-0.05 -0.16,-0.06c-0.01,-0.01 -0.01,-0.01 -0.02,-0.01c-0.06,-0.01 -0.12,0 -0.18,0c-0.06,0 -0.12,-0.01 -0.18,0c-0.01,0 -0.01,0 -0.02,0c-0.07,0.02 -0.13,0.05 -0.19,0.08c-0.06,0.02 -0.12,0.04 -0.17,0.07c-0.04,0.03 -0.06,0.07 -0.09,0.1c-0.05,0.03 -0.08,0.07 -0.12,0.11l-0.06,0.06c-0.01,0.02 -0.01,0.03 -0.02,0.04c-0.01,0.01 -0.02,0.02 -0.03,0.04l-21,38c-0.05,0.09 -0.08,0.2 -0.1,0.31c0,0.02 -0.01,0.05 -0.01,0.08c-0.01,0.1 0,0.2 0.02,0.3v0.04c0.03,0.09 0.06,0.18 0.11,0.26c0.01,0.02 0.03,0.04 0.04,0.06c0.01,0.01 0.01,0.02 0.02,0.03l5.25,6.96c0.02,0.02 0.05,0.03 0.07,0.05c0.04,0.06 0.09,0.1 0.15,0.14c0.05,0.04 0.09,0.07 0.14,0.09c0.06,0.03 0.13,0.05 0.19,0.07c0.04,0.01 0.07,0.03 0.11,0.03l7.35,1.05c0.05,0.01 0.09,0.01 0.14,0.01c0.48,0 0.9,-0.34 0.98,-0.82l1.32,-7.18h12.2l1.32,7.18c0.08,0.48 0.5,0.82 0.98,0.82c0.05,0 0.09,0 0.14,-0.01l7.35,-1.05h0.01c0,0 0.01,0 0.02,0c0.05,-0.01 0.09,-0.04 0.14,-0.06c0.07,-0.02 0.15,-0.04 0.21,-0.07c0.06,-0.04 0.11,-0.1 0.16,-0.15c0.04,-0.04 0.09,-0.06 0.12,-0.1l5.25,-6.96c0.01,-0.01 0.01,-0.02 0.02,-0.03c0.01,-0.02 0.03,-0.04 0.04,-0.06c0.05,-0.08 0.08,-0.17 0.11,-0.26v-0.04c0.02,-0.1 0.03,-0.2 0.02,-0.3c0,-0.03 -0.01,-0.06 -0.01,-0.08zM14.04,43.57c0.03,-0.01 0.06,-0.01 0.1,-0.02l0.23,-0.1l0.21,2.55h-1.88zM13.01,48h1.74l0.22,2.59zM42.14,29.42l-5,2.14l-3.06,-16.72zM32,14.57l3.25,17.79l-7.05,3.01zM22.79,53.87l-5.61,-0.79l-0.42,-5.08h7.1zM24.23,46h-7.64l-0.28,-3.38l9.26,-3.95zM15.84,40.64c-0.04,-0.03 -0.09,-0.05 -0.14,-0.08l14.22,-25.72l-3.92,21.47zM26.26,46l1.51,-8.27l7.85,-3.35l2.12,11.62zM41.21,53.87l-1.07,-5.87h5.6l0.85,5.11zM48.35,51.5l-0.58,-3.5h3.22zM39.77,46l-2.27,-12.42l5.62,-2.4l8.18,14.82z" fill="url(#color-1)"></path><path d="M51.3,46h-11.53l-2.27,-12.42l5.62,-2.4z" fill="url(#color-2)"></path><path d="M37.74,46h-11.48l1.51,-8.27l7.85,-3.35z" fill="url(#color-3)"></path><path d="M25.57,38.67l-1.34,7.33h-7.64l-0.28,-3.38z" fill="url(#color-4)"></path><path d="M14.58,46h-1.88l1.34,-2.43c0.03,-0.01 0.06,-0.01 0.1,-0.02l0.23,-0.1z" fill="url(#color-5)"></path></g></g></svg>