<svg xmlns="http://www.w3.org/2000/svg" xmlns:xlink="http://www.w3.org/1999/xlink" viewBox="0,0,256,256" width="128px" height="128px"><defs><linearGradient x1="39" y1="27" x2="39" y2="40" gradientUnits="userSpaceOnUse" id="color-1"><stop offset="0" stop-color="#8cffd8"></stop><stop offset="1" stop-color="#ffb0cc"></stop></linearGradient><linearGradient x1="39" y1="7.252" x2="39" y2="53.649" gradientUnits="userSpaceOnUse" id="color-2"><stop offset="0" stop-color="#60c8a6"></stop><stop offset="1" stop-color="#c2517d"></stop></linearGradient><linearGradient x1="30.5" y1="7.25" x2="30.5" y2="53.649" gradientUnits="userSpaceOnUse" id="color-3"><stop offset="0" stop-color="#60c8a6"></stop><stop offset="1" stop-color="#c2517d"></stop></linearGradient></defs><g fill="none" fill-rule="nonzero" stroke="none" stroke-width="1" stroke-linecap="butt" stroke-linejoin="miter" stroke-miterlimit="10" stroke-dasharray="" stroke-dashoffset="0" font-family="none" font-weight="none" font-size="none" text-anchor="none" style="mix-blend-mode: normal"><g transform="scale(4,4)"><path d="M44.455,28.747c-1.432,-1.085 -3.355,-1.746 -5.455,-1.747c-2.1,0.001 -4.024,0.662 -5.456,1.747c-1.457,1.105 -2.423,2.661 -2.534,4.428c-0.112,1.815 0.702,3.504 2.132,4.754c1.458,1.272 3.536,2.071 5.859,2.071c2.322,0 4.399,-0.799 5.855,-2.072c1.43,-1.249 2.245,-2.938 2.134,-4.754c-0.111,-1.765 -1.078,-3.322 -2.535,-4.427z" fill="url(#color-1)"></path><path d="M38.976,45c-3.721,0 -7.14,-1.343 -9.63,-3.784c-1.21,-1.183 -2.112,-2.546 -2.682,-4.049c-0.554,-1.471 -0.763,-3.006 -0.622,-4.564c0.136,-1.513 0.592,-2.955 1.355,-4.287c0.735,-1.285 1.734,-2.431 2.969,-3.406c2.384,-1.873 5.449,-2.906 8.633,-2.911c0.006,0 0.012,0 0.017,0c3.176,0 6.234,1.024 8.615,2.886c1.237,0.972 2.236,2.114 2.971,3.398c0.763,1.331 1.22,2.772 1.357,4.283c0.14,1.563 -0.07,3.099 -0.622,4.565v0c-0.568,1.504 -1.469,2.869 -2.68,4.056c-2.494,2.453 -5.922,3.806 -9.652,3.812c-0.01,0.001 -0.019,0.001 -0.029,0.001zM39.017,24c-0.005,0 -0.01,0 -0.015,0c-2.739,0.003 -5.366,0.885 -7.398,2.482c-1.031,0.814 -1.863,1.766 -2.47,2.828c-0.619,1.081 -0.989,2.249 -1.099,3.473c-0.114,1.255 0.055,2.493 0.501,3.678c0.465,1.227 1.208,2.347 2.21,3.326c2.115,2.073 5.037,3.213 8.231,3.213c0.008,0 0.016,0 0.024,0c3.204,-0.004 6.135,-1.155 8.254,-3.239c1.002,-0.983 1.745,-2.105 2.209,-3.335v0c0.446,-1.183 0.615,-2.421 0.502,-3.681c-0.111,-1.22 -0.481,-2.388 -1.101,-3.468c-0.606,-1.06 -1.436,-2.008 -2.468,-2.818c-2.028,-1.585 -4.649,-2.459 -7.38,-2.459z" fill="url(#color-2)"></path><path d="M38.853,54c-15.676,0 -20.545,-12.201 -20.545,-16.645c0,-0.018 0,-0.04 0,-0.064l-9.518,7.733c-0.729,0.623 -1.682,0.976 -2.664,0.976c-1.206,0 -2.348,-0.525 -3.133,-1.44c-0.717,-0.835 -1.066,-1.901 -0.981,-3c0.084,-1.099 0.592,-2.099 1.428,-2.816l16.542,-13.744h-6.982c-2.206,0 -4,-1.794 -4,-4c0,-2.206 1.794,-4 4,-4h21.234l-4.831,-3.703c-0.03,-0.02 -0.06,-0.041 -0.088,-0.063c-0.731,-0.584 -1.19,-1.417 -1.294,-2.347c-0.104,-0.929 0.162,-1.843 0.747,-2.573c0.583,-0.73 1.416,-1.189 2.345,-1.293c0.931,-0.102 1.844,0.162 2.574,0.746l18.027,13.176c0.039,0.028 0.11,0.093 0.159,0.141l0.007,-0.009c1.806,1.402 3.314,3.065 4.482,4.943c1.296,2.085 2.126,4.358 2.467,6.756c0.175,1.24 0.215,2.493 0.121,3.726c0.003,10.108 -8.45,17.5 -20.097,17.5zM19.352,34.154c0.15,0 0.302,0.034 0.442,0.103c0.35,0.173 0.568,0.534 0.557,0.924c-0.027,0.988 -0.048,1.884 -0.043,2.156c0,3.771 4.565,14.663 18.545,14.663c10.657,0 18.1,-6.405 18.1,-15.576c0.087,-1.166 0.051,-2.273 -0.104,-3.369c-0.301,-2.12 -1.037,-4.133 -2.185,-5.98c-1.028,-1.652 -2.354,-3.122 -3.943,-4.367c-0.061,-0.034 -0.117,-0.072 -0.162,-0.112c-0.029,-0.026 -0.057,-0.053 -0.083,-0.081l-18.004,-13.16c-0.347,-0.277 -0.739,-0.391 -1.137,-0.346c-0.398,0.045 -0.755,0.241 -1.005,0.554c-0.251,0.313 -0.365,0.705 -0.32,1.103c0.042,0.382 0.226,0.727 0.518,0.975l7.683,5.515c0.375,0.239 0.548,0.696 0.424,1.124c-0.125,0.427 -0.544,0.666 -0.989,0.666l-24.646,0.054c-1.103,0 -2,0.897 -2,2c0,1.103 0.897,2 2,2h1v0h8.75c0.421,0 0.797,0.264 0.94,0.66c0.143,0.396 0.022,0.84 -0.301,1.109l-18.659,15.502c-0.419,0.359 -0.681,0.875 -0.724,1.441c-0.043,0.566 0.136,1.115 0.505,1.545c0.733,0.856 2.137,0.967 2.997,0.23l11.213,-9.11c0.182,-0.147 0.405,-0.223 0.631,-0.223z" fill="url(#color-3)"></path></g></g></svg>