<svg xmlns="http://www.w3.org/2000/svg" xmlns:xlink="http://www.w3.org/1999/xlink" viewBox="0,0,256,256" width="128px" height="128px"><defs><linearGradient x1="32" y1="5.167" x2="32" y2="59" gradientUnits="userSpaceOnUse" id="color-1"><stop offset="0" stop-color="#8cffd8"></stop><stop offset="1" stop-color="#ffb0cc"></stop></linearGradient><linearGradient x1="28.349" y1="5.167" x2="28.349" y2="59" gradientUnits="userSpaceOnUse" id="color-2"><stop offset="0" stop-color="#8cffd8"></stop><stop offset="1" stop-color="#ffb0cc"></stop></linearGradient><linearGradient x1="23.25" y1="5.167" x2="23.25" y2="59" gradientUnits="userSpaceOnUse" id="color-3"><stop offset="0" stop-color="#8cffd8"></stop><stop offset="1" stop-color="#ffb0cc"></stop></linearGradient><linearGradient x1="37.45" y1="4.436" x2="37.45" y2="59.469" gradientUnits="userSpaceOnUse" id="color-4"><stop offset="0" stop-color="#4ce2af"></stop><stop offset="1" stop-color="#d23d76"></stop></linearGradient></defs><g fill="none" fill-rule="nonzero" stroke="none" stroke-width="1" stroke-linecap="butt" stroke-linejoin="miter" stroke-miterlimit="10" stroke-dasharray="" stroke-dashoffset="0" font-family="none" font-weight="none" font-size="none" text-anchor="none" style="mix-blend-mode: normal"><g transform="scale(4,4)"><path d="M28,59c-0.404,0 -0.776,-0.246 -0.929,-0.632c-1.99,-5.021 -5.694,-14.368 -8.446,-14.368c-1.286,0 -2.558,0.824 -2.57,0.832c-0.346,0.232 -0.801,0.224 -1.139,-0.021l-12.5,-9c-0.294,-0.212 -0.451,-0.568 -0.409,-0.929c0.042,-0.361 0.277,-0.67 0.613,-0.808l16.466,-6.758c0.735,-1.085 3.588,-5.061 6.68,-6.25c0.467,-0.18 0.857,-0.326 1.189,-0.45c1.673,-0.627 1.673,-0.627 2.953,-1.83l0.283,-0.266c1.739,-1.63 5.057,-6.753 6.083,-8.419c0.118,-0.193 0.244,-0.405 0.377,-0.629c1.117,-1.888 2.646,-4.472 4.974,-4.472c2.67,0 4.088,2.751 5.666,6.349c1.45,3.307 5.323,14.258 6.907,18.957c3.81,11.307 7.661,19.175 7.7,19.253c0.195,0.397 0.106,0.876 -0.22,1.177c-0.325,0.301 -0.809,0.352 -1.191,0.123c-0.081,-0.048 -2.018,-1.222 -5.194,-4.402c-2.356,-2.358 -4.276,-3.457 -6.043,-3.457c-3.109,0 -5.305,2.472 -8.086,5.603l-0.166,0.187c-0.33,0.371 -0.693,0.797 -1.089,1.26c-2.76,3.231 -6.93,8.115 -11.74,8.937c-0.057,0.009 -0.114,0.013 -0.169,0.013zM18.625,42c3.693,0 6.614,6.372 9.988,14.835c3.806,-1.095 7.367,-5.265 9.775,-8.084c0.405,-0.474 0.778,-0.911 1.115,-1.29l0.166,-0.187c2.991,-3.367 5.574,-6.274 9.581,-6.274c3.03,0 5.577,2.161 7.458,4.043c0.597,0.598 1.147,1.12 1.646,1.573c-1.506,-3.434 -3.789,-8.959 -6.051,-15.672c-1.635,-4.852 -5.475,-15.672 -6.843,-18.793c-1.466,-3.34 -2.511,-5.151 -3.835,-5.151c-1.188,0 -2.481,2.185 -3.254,3.491c-0.139,0.235 -0.271,0.457 -0.395,0.658c-0.041,0.067 -4.119,6.676 -6.417,8.831l-0.281,0.264c-1.527,1.436 -1.628,1.499 -3.62,2.245c-0.327,0.123 -0.712,0.267 -1.174,0.445c-2.415,0.929 -5.072,4.452 -5.892,5.731c-0.111,0.173 -0.272,0.308 -0.462,0.386l-15.084,6.19l10.519,7.573c0.676,-0.344 1.825,-0.814 3.06,-0.814z" fill="url(#color-1)"></path><path d="M15.926,44.905l-0.853,-1.809c0.062,-0.029 6.192,-2.995 10.962,-10.388c4.531,-7.023 6.769,-12.507 7.971,-15.453c0.306,-0.75 0.54,-1.32 0.719,-1.69c0.44,-0.911 0.865,-2.007 1.315,-3.168c1.41,-3.637 2.869,-7.397 5.585,-7.397v2c-1.347,0 -2.719,3.537 -3.72,6.12c-0.465,1.199 -0.905,2.332 -1.379,3.315c-0.167,0.345 -0.382,0.877 -0.668,1.577c-1.227,3.006 -3.51,8.601 -8.142,15.781c-5.097,7.899 -11.519,10.984 -11.79,11.112z" fill="url(#color-2)"></path><path d="M26.15,34.175l-7,-5.25l1.2,-1.6l7,5.25z" fill="url(#color-3)"></path><path d="M38.173,45.946c3.119,-3.511 6.068,-6.83 10.827,-6.943c0,0 -3.375,-14.878 -6.25,-27.128c-0.584,-2.489 -0.817,-2.875 -1.06,-2.875c-0.165,0 -0.361,0.365 -0.516,1.206c-0.831,4.491 -4.759,21.216 -7.924,29.294c-1.209,3.086 -3.371,4.901 -5.25,5.75c-0.86,0.389 -2.1,0.75 -2.1,0.75c1.301,2.279 2.537,5.08 3.809,8.202c2.686,-1.513 5.313,-4.59 7.158,-6.75c0.414,-0.485 0.796,-0.931 1.142,-1.321z" fill="url(#color-4)"></path></g></g></svg>