<svg xmlns="http://www.w3.org/2000/svg" xmlns:xlink="http://www.w3.org/1999/xlink" viewBox="0,0,256,256" width="128px" height="128px"><defs><linearGradient x1="32" y1="9.083" x2="32" y2="54.676" gradientUnits="userSpaceOnUse" id="color-1"><stop offset="0" stop-color="#8cffd8"></stop><stop offset="1" stop-color="#ffb0cc"></stop></linearGradient><linearGradient x1="25.5" y1="21" x2="25.5" y2="44" gradientUnits="userSpaceOnUse" id="color-2"><stop offset="0" stop-color="#60c8a6"></stop><stop offset="1" stop-color="#c2517d"></stop></linearGradient><linearGradient x1="40.5" y1="26" x2="40.5" y2="44" gradientUnits="userSpaceOnUse" id="color-3"><stop offset="0" stop-color="#60c8a6"></stop><stop offset="1" stop-color="#c2517d"></stop></linearGradient></defs><g fill="none" fill-rule="nonzero" stroke="none" stroke-width="1" stroke-linecap="butt" stroke-linejoin="miter" stroke-miterlimit="10" stroke-dasharray="" stroke-dashoffset="0" font-family="none" font-weight="none" font-size="none" text-anchor="none" style="mix-blend-mode: normal"><g transform="scale(4,4)"><path d="M50,55h-36c-2.757,0 -5,-2.243 -5,-5v-36c0,-2.757 2.243,-5 5,-5h36c2.757,0 5,2.243 5,5v36c0,2.757 -2.243,5 -5,5zM14,11c-1.654,0 -3,1.346 -3,3v36c0,1.654 1.346,3 3,3h36c1.654,0 3,-1.346 3,-3v-36c0,-1.654 -1.346,-3 -3,-3z" fill="url(#color-1)"></path><path d="M23,21c-2.209,0 -4,1.791 -4,4v18c0,0.552 0.448,1 1,1h2c0.552,0 1,-0.448 1,-1v-7h5c2.209,0 4,-1.791 4,-4v-7c0,-2.209 -1.791,-4 -4,-4zM23,31v-5c0,-0.552 0.448,-1 1,-1h3c0.552,0 1,0.448 1,1v5c0,0.552 -0.448,1 -1,1h-3c-0.552,0 -1,-0.448 -1,-1z" fill="url(#color-2)"></path><path d="M45,26h-1.764c-1.47,0 -2.921,0.342 -4.236,1c0,-0.552 -0.448,-1 -1,-1h-2c-0.552,0 -1,0.448 -1,1v16c0,0.552 0.448,1 1,1h2c0.552,0 1,-0.448 1,-1v-12v0c1.315,-0.658 2.766,-1 4.236,-1h1.764c0.552,0 1,-0.448 1,-1v-2c0,-0.552 -0.448,-1 -1,-1z" fill="url(#color-3)"></path></g></g></svg>