<svg xmlns="http://www.w3.org/2000/svg" xmlns:xlink="http://www.w3.org/1999/xlink" viewBox="0,0,256,256" width="128px" height="128px"><defs><linearGradient x1="27" y1="11.043" x2="27" y2="14.639" gradientUnits="userSpaceOnUse" id="color-1"><stop offset="0" stop-color="#8cffd8"></stop><stop offset="1" stop-color="#ffb0cc"></stop></linearGradient><linearGradient x1="37" y1="49.128" x2="37" y2="52.83" gradientUnits="userSpaceOnUse" id="color-2"><stop offset="0" stop-color="#8cffd8"></stop><stop offset="1" stop-color="#ffb0cc"></stop></linearGradient><linearGradient x1="32" y1="6.66" x2="32" y2="56.873" gradientUnits="userSpaceOnUse" id="color-3"><stop offset="0" stop-color="#60c8a6"></stop><stop offset="1" stop-color="#c2517d"></stop></linearGradient></defs><g fill="none" fill-rule="nonzero" stroke="none" stroke-width="1" stroke-linecap="butt" stroke-linejoin="miter" stroke-miterlimit="10" stroke-dasharray="" stroke-dashoffset="0" font-family="none" font-weight="none" font-size="none" text-anchor="none" style="mix-blend-mode: normal"><g transform="scale(4,4)"><circle cx="27" cy="13" r="2" fill="url(#color-1)"></circle><circle cx="37" cy="51" r="2" fill="url(#color-2)"></circle><path d="M51,21h-7v-8c0,-3.859 -3.14,-7 -7,-7h-10c-3.86,0 -7,3.141 -7,7v8h-7c-3.86,0 -7,3.141 -7,7v8c0,3.859 3.14,7 7,7h7v8c0,3.859 3.14,7 7,7h10c3.86,0 7,-3.141 7,-7v-8h7c3.86,0 7,-3.141 7,-7v-8c0,-3.859 -3.14,-7 -7,-7zM13,41c-2.757,0 -5,-2.243 -5,-5v-5h7v-2h-7v-1c0,-0.342 0.035,-0.677 0.101,-1h14.899v-2h-13.974c0.914,-1.207 2.348,-2 3.974,-2h16v-2h-7v-8c0,-2.757 2.243,-5 5,-5h10c2.757,0 5,2.243 5,5v15c0,1.654 -1.346,3 -3,3h-5.489h-3.021h-5.49c-2.757,0 -5,2.243 -5,5v5zM51,41h-16v2h7v8c0,2.757 -2.243,5 -5,5h-10c-2.757,0 -5,-2.243 -5,-5v-15c0,-1.654 1.346,-3 3,-3h5.489h3.021h5.49c2.757,0 5,-2.243 5,-5v-5h7c2.757,0 5,2.243 5,5v5h-7v2h7v1c0,0.342 -0.035,0.677 -0.101,1h-14.899v2h13.974c-0.913,1.207 -2.347,2 -3.974,2z" fill="url(#color-3)"></path></g></g></svg>