{
  "accessors": [
    {
      "bufferView": 2,
      "componentType": 5126,
      "count": 19572,
      "max": [
        1.1049766540527344,
        0.9077842831611633,
        1.1049766540527344
      ],
      "min": [
        -1.1049766540527344,
        -2.0022056102752686,
        -1.1049766540527344
      ],
      "type": "VEC3"
    },
    {
      "bufferView": 2,
      "byteOffset": 234864,
      "componentType": 5126,
      "count": 19572,
      "max": [
        0.9999998807907104,
        1.0,
        0.9999999403953552
      ],
      "min": [
        -0.9999998807907104,
        -0.9999975562095642,
        -0.9999999403953552
      ],
      "type": "VEC3"
    },
    {
      "bufferView": 1,
      "componentType": 5126,
      "count": 19572,
      "max": [
        0.9970927834510803,
        0.9467986822128296
      ],
      "min": [
        0.0006010096985846758,
        0.0013075614115223289
      ],
      "type": "VEC2"
    },
    {
      "bufferView": 0,
      "componentType": 5125,
      "count": 111408,
      "type": "SCALAR"
    },
    {
      "bufferView": 2,
      "byteOffset": 469728,
      "componentType": 5126,
      "count": 660,
      "max": [
        1.25,
        0.25,
        1.25
      ],
      "min": [
        -1.25,
        -1.071069359779358,
        -1.744811773300171
      ],
      "type": "VEC3"
    },
    {
      "bufferView": 2,
      "byteOffset": 477648,
      "componentType": 5126,
      "count": 660,
      "max": [
        1.0,
        0.9999419450759888,
        1.0
      ],
      "min": [
        -1.0,
        -0.9999419450759888,
        -1.0
      ],
      "type": "VEC3"
    },
    {
      "bufferView": 1,
      "byteOffset": 156576,
      "componentType": 5126,
      "count": 660,
      "max": [
        1.0,
        1.0
      ],
      "min": [
        8.881784197001252e-16,
        2.220446049250313e-16
      ],
      "type": "VEC2"
    },
    {
      "bufferView": 0,
      "byteOffset": 445632,
      "componentType": 5125,
      "count": 3594,
      "type": "SCALAR"
    },
    {
      "bufferView": 2,
      "byteOffset": 485568,
      "componentType": 5126,
      "count": 6426,
      "max": [
        1.4892692565917969,
        1.1921634674072266,
        1.4853566884994507
      ],
      "min": [
        -1.3653066158294678,
        -1.4914106130599976,
        -1.4613525867462158
      ],
      "type": "VEC3"
    },
    {
      "bufferView": 2,
      "byteOffset": 562680,
      "componentType": 5126,
      "count": 6426,
      "max": [
        0.9998393654823303,
        0.9996792078018188,
        0.9999009370803833
      ],
      "min": [
        -0.9998393654823303,
        -0.99997878074646,
        -0.9992575645446777
      ],
      "type": "VEC3"
    },
    {
      "bufferView": 1,
      "byteOffset": 161856,
      "componentType": 5126,
      "count": 6426,
      "max": [
        0.9860152006149292,
        0.9940484762191772
      ],
      "min": [
        0.0059516290202736855,
        0.005951635539531708
      ],
      "type": "VEC2"
    },
    {
      "bufferView": 0,
      "byteOffset": 460008,
      "componentType": 5125,
      "count": 29568,
      "type": "SCALAR"
    },
    {
      "bufferView": 2,
      "byteOffset": 639792,
      "componentType": 5126,
      "count": 435,
      "max": [
        0.2819029688835144,
        -0.005718574393540621,
        1.1991487741470337
      ],
      "min": [
        -0.281902939081192,
        -0.19195616245269775,
        1.0289674997329712
      ],
      "type": "VEC3"
    },
    {
      "bufferView": 2,
      "byteOffset": 645012,
      "componentType": 5126,
      "count": 435,
      "max": [
        0.9291520714759827,
        0.9976248145103455,
        0.9988109469413757
      ],
      "min": [
        -0.9291523098945618,
        -0.288862019777298,
        -0.9957042932510376
      ],
      "type": "VEC3"
    },
    {
      "bufferView": 1,
      "byteOffset": 213264,
      "componentType": 5126,
      "count": 435,
      "max": [
        0.9596233367919922,
        0.9650033712387085
      ],
      "min": [
        0.07543230056762695,
        0.09709267318248749
      ],
      "type": "VEC2"
    },
    {
      "bufferView": 0,
      "byteOffset": 578280,
      "componentType": 5125,
      "count": 1920,
      "type": "SCALAR"
    },
    {
      "bufferView": 2,
      "byteOffset": 650232,
      "componentType": 5126,
      "count": 205,
      "max": [
        0.2044658660888672,
        0.1535460203886032,
        1.1116420030593872
      ],
      "min": [
        0.08202283084392548,
        0.08190681040287018,
        1.0345333814620972
      ],
      "type": "VEC3"
    },
    {
      "bufferView": 2,
      "byteOffset": 652692,
      "componentType": 5126,
      "count": 205,
      "max": [
        0.911979079246521,
        -0.024834776297211647,
        0.9992949366569519
      ],
      "min": [
        -0.9530189633369446,
        -0.9890149235725403,
        -0.9172866940498352
      ],
      "type": "VEC3"
    },
    {
      "bufferView": 1,
      "byteOffset": 216744,
      "componentType": 5126,
      "count": 205,
      "max": [
        0.9128351807594299,
        0.8924171924591064
      ],
      "min": [
        0.25035199522972107,
        0.09709266573190689
      ],
      "type": "VEC2"
    },
    {
      "bufferView": 0,
      "byteOffset": 585960,
      "componentType": 5125,
      "count": 864,
      "type": "SCALAR"
    },
    {
      "bufferView": 2,
      "byteOffset": 655152,
      "componentType": 5126,
      "count": 490,
      "max": [
        0.6445116400718689,
        0.37574508786201477,
        1.0991430282592773
      ],
      "min": [
        -0.6445116400718689,
        0.2673213481903076,
        0.9745150804519653
      ],
      "type": "VEC3"
    },
    {
      "bufferView": 2,
      "byteOffset": 661032,
      "componentType": 5126,
      "count": 490,
      "max": [
        0.9916370511054993,
        0.9894031286239624,
        0.9988107681274414
      ],
      "min": [
        -0.9916369915008545,
        -0.9021373987197876,
        -0.45936939120292664
      ],
      "type": "VEC3"
    },
    {
      "bufferView": 1,
      "byteOffset": 218384,
      "componentType": 5126,
      "count": 490,
      "max": [
        0.9858120083808899,
        0.9358645677566528
      ],
      "min": [
        0.0769810751080513,
        0.005951635539531708
      ],
      "type": "VEC2"
    },
    {
      "bufferView": 0,
      "byteOffset": 589416,
      "componentType": 5125,
      "count": 2112,
      "type": "SCALAR"
    }
  ],
  "asset": {
    "extras": {
      "author": "BunnyGame (https://sketchfab.com/bunnyGame)",
      "license": "CC-BY-NC-4.0 (http://creativecommons.org/licenses/by-nc/4.0/)",
      "source": "https://sketchfab.com/3d-models/tako-ice-cream-a62f6338aeeb418091d9d3f379508fb3",
      "title": "Tako Ice Cream"
    },
    "generator": "Sketchfab-15.55.0",
    "version": "2.0"
  },
  "bufferViews": [
    {
      "buffer": 0,
      "byteLength": 597864,
      "name": "floatBufferViews",
      "target": 34963
    },
    {
      "buffer": 0,
      "byteLength": 222304,
      "byteOffset": 597864,
      "byteStride": 8,
      "name": "floatBufferViews",
      "target": 34962
    },
    {
      "buffer": 0,
      "byteLength": 666912,
      "byteOffset": 820168,
      "byteStride": 12,
      "name": "floatBufferViews",
      "target": 34962
    }
  ],
  "buffers": [
    {
      "byteLength": 1487080,
      "uri": "scene.bin"
    }
  ],
  "images": [
    {
      "uri": "textures/Material.004_baseColor.png"
    },
    {
      "uri": "textures/Material_baseColor.png"
    }
  ],
  "materials": [
    {
      "doubleSided": true,
      "name": "Material.004",
      "pbrMetallicRoughness": {
        "baseColorTexture": {
          "index": 0
        },
        "metallicFactor": 0.0,
        "roughnessFactor": 0.692661
      }
    },
    {
      "doubleSided": true,
      "name": "Material.001",
      "pbrMetallicRoughness": {
        "baseColorFactor": [
          0.822786,
          0.371238,
          0.147027,
          1.0
        ],
        "metallicFactor": 0.0,
        "roughnessFactor": 0.37156
      }
    },
    {
      "doubleSided": true,
      "name": "Material",
      "pbrMetallicRoughness": {
        "baseColorTexture": {
          "index": 1
        },
        "metallicFactor": 0.0,
        "roughnessFactor": 0.62844
      }
    },
    {
      "doubleSided": true,
      "name": "Material.002",
      "pbrMetallicRoughness": {
        "baseColorFactor": [
          0.723055,
          0.258183,
          0.250158,
          1.0
        ],
        "metallicFactor": 0.0,
        "roughnessFactor": 0.5
      }
    },
    {
      "doubleSided": true,
      "name": "Material.006",
      "pbrMetallicRoughness": {
        "baseColorFactor": [
          0.8,
          0.8,
          0.8,
          1.0
        ],
        "metallicFactor": 0.0,
        "roughnessFactor": 0.5
      }
    },
    {
      "doubleSided": true,
      "name": "Material.003",
      "pbrMetallicRoughness": {
        "baseColorFactor": [
          0.00749903,
          0.00802319,
          0.0193824,
          1.0
        ],
        "metallicFactor": 0.0,
        "roughnessFactor": 0.5
      }
    }
  ],
  "meshes": [
    {
      "name": "Object_0",
      "primitives": [
        {
          "attributes": {
            "NORMAL": 1,
            "POSITION": 0,
            "TEXCOORD_0": 2
          },
          "indices": 3,
          "material": 0,
          "mode": 4
        }
      ]
    },
    {
      "name": "Object_1",
      "primitives": [
        {
          "attributes": {
            "NORMAL": 5,
            "POSITION": 4,
            "TEXCOORD_0": 6
          },
          "indices": 7,
          "material": 1,
          "mode": 4
        }
      ]
    },
    {
      "name": "Object_2",
      "primitives": [
        {
          "attributes": {
            "NORMAL": 9,
            "POSITION": 8,
            "TEXCOORD_0": 10
          },
          "indices": 11,
          "material": 2,
          "mode": 4
        }
      ]
    },
    {
      "name": "Object_3",
      "primitives": [
        {
          "attributes": {
            "NORMAL": 13,
            "POSITION": 12,
            "TEXCOORD_0": 14
          },
          "indices": 15,
          "material": 3,
          "mode": 4
        }
      ]
    },
    {
      "name": "Object_4",
      "primitives": [
        {
          "attributes": {
            "NORMAL": 17,
            "POSITION": 16,
            "TEXCOORD_0": 18
          },
          "indices": 19,
          "material": 4,
          "mode": 4
        }
      ]
    },
    {
      "name": "Object_5",
      "primitives": [
        {
          "attributes": {
            "NORMAL": 21,
            "POSITION": 20,
            "TEXCOORD_0": 22
          },
          "indices": 23,
          "material": 5,
          "mode": 4
        }
      ]
    }
  ],
  "nodes": [
    {
      "children": [
        1
      ],
      "matrix": [
        1.0,
        0.0,
        0.0,
        0.0,
        0.0,
        2.220446049250313e-16,
        -1.0,
        0.0,
        0.0,
        1.0,
        2.220446049250313e-16,
        0.0,
        0.0,
        0.0,
        0.0,
        1.0
      ],
      "name": "Sketchfab_model"
    },
    {
      "children": [
        2
      ],
      "name": "root"
    },
    {
      "children": [
        3,
        5,
        7
      ],
      "matrix": [
        1.0,
        0.0,
        0.0,
        0.0,
        0.0,
        2.220446049250313e-16,
        1.0,
        0.0,
        0.0,
        -1.0,
        2.220446049250313e-16,
        0.0,
        0.0,
        0.0,
        0.0,
        1.0
      ],
      "name": "GLTF_SceneRootNode"
    },
    {
      "children": [
        4
      ],
      "matrix": [
        1.0,
        0.0,
        0.0,
        0.0,
        0.0,
        1.0,
        0.0,
        0.0,
        0.0,
        0.0,
        1.0,
        0.0,
        -0.009381979703903198,
        -1.6711302995681763,
        0.0,
        1.0
      ],
      "name": "cone_6"
    },
    {
      "mesh": 0,
      "name": "Object_4"
    },
    {
      "children": [
        6
      ],
      "matrix": [
        0.5262601375579834,
        0.0,
        -0.0,
        0.0,
        0.0,
        0.44953262607676153,
        -0.27362410433855805,
        0.0,
        0.0,
        0.27362410433855805,
        0.44953262607676153,
        0.0,
        0.017050543799996376,
        1.1422159671783447,
        -0.6108846664428711,
        1.0
      ],
      "name": "ring_7"
    },
    {
      "mesh": 1,
      "name": "Object_6"
    },
    {
      "children": [
        8,
        9,
        10,
        11
      ],
      "name": "tako_8"
    },
    {
      "mesh": 2,
      "name": "Object_8"
    },
    {
      "mesh": 3,
      "name": "Object_9"
    },
    {
      "mesh": 4,
      "name": "Object_10"
    },
    {
      "mesh": 5,
      "name": "Object_11"
    }
  ],
  "samplers": [
    {
      "magFilter": 9729,
      "minFilter": 9987,
      "wrapS": 10497,
      "wrapT": 10497
    }
  ],
  "scene": 0,
  "scenes": [
    {
      "name": "Sketchfab_Scene",
      "nodes": [
        0
      ]
    }
  ],
  "textures": [
    {
      "sampler": 0,
      "source": 0
    },
    {
      "sampler": 0,
      "source": 1
    }
  ]
}
